<?xml version="1.0" encoding="UTF-8"?>
<svg xmlns="http://www.w3.org/2000/svg" xmlns:xlink="http://www.w3.org/1999/xlink" width="48px" height="48px" viewBox="0 0 48 48" version="1.1">
<g id="surface1">
<path style=" stroke:none;fill-rule:nonzero;fill:rgb(100%,62.352941%,9.803922%);fill-opacity:1;" d="M 41.738281 44.890625 L 6.265625 44.890625 C 4.046875 44.890625 2.039062 43.753906 0.898438 41.851562 C -0.242188 39.949219 -0.300781 37.644531 0.742188 35.683594 L 18.644531 6.128906 C 19.789062 4.238281 21.789062 3.109375 24.003906 3.109375 C 26.214844 3.109375 28.21875 4.238281 29.359375 6.132812 L 47.21875 35.609375 C 48.304688 37.644531 48.25 39.949219 47.105469 41.851562 C 45.964844 43.753906 43.957031 44.890625 41.738281 44.890625 Z M 41.738281 44.890625 "/>
<path style=" stroke:none;fill-rule:nonzero;fill:rgb(94.901961%,52.54902%,9.411765%);fill-opacity:1;" d="M 41.738281 44.890625 C 43.957031 44.890625 45.964844 43.753906 47.105469 41.851562 C 48.25 39.949219 48.304688 37.644531 47.21875 35.609375 L 29.359375 6.132812 C 28.21875 4.238281 26.214844 3.109375 24.003906 3.109375 L 24.003906 44.890625 Z M 41.738281 44.890625 "/>
<path style=" stroke:none;fill-rule:nonzero;fill:rgb(28.235294%,39.215686%,45.882353%);fill-opacity:1;" d="M 24.003906 32.371094 C 23.140625 32.371094 22.4375 31.671875 22.4375 30.804688 L 22.4375 15.15625 C 22.4375 14.292969 23.140625 13.59375 24.003906 13.59375 C 24.867188 13.59375 25.566406 14.292969 25.566406 15.15625 L 25.566406 30.804688 C 25.566406 31.671875 24.867188 32.371094 24.003906 32.371094 Z M 24.003906 32.371094 "/>
<path style=" stroke:none;fill-rule:nonzero;fill:rgb(23.529412%,30.196078%,36.078431%);fill-opacity:1;" d="M 24.003906 38.628906 C 23.140625 38.628906 22.4375 37.929688 22.4375 37.066406 C 22.4375 36.203125 23.140625 35.5 24.003906 35.5 C 24.867188 35.5 25.566406 36.203125 25.566406 37.066406 C 25.566406 37.929688 24.867188 38.628906 24.003906 38.628906 Z M 24.003906 38.628906 "/>
</g>
</svg>
