<svg xmlns="http://www.w3.org/2000/svg"  viewBox="0 0 333333 333333" shape-rendering="geometricPrecision" text-rendering="geometricPrecision" image-rendering="optimizeQuality" fill-rule="evenodd" clip-rule="evenodd"><path d="M166667 0c92048 0 166667 74619 166667 166667s-74619 166667-166667 166667S0 258715 0 166667 74619 0 166667 0zm-45535 178066c0-6287 5100-11386 11386-11386 6287 0 11382 5100 11382 11386 0 6287-5097 11385-11382 11385-6287 0-11386-5100-11386-11385zm68308 0c0-6287 5100-11386 11386-11386 6287 0 11387 5100 11387 11386 0 6287-5100 11385-11387 11385s-11386-5100-11386-11385zm556 24329c2938-2309 7187-1811 9496 1126 2310 2938 1813 7187-1126 9497-8163 6434-20608 10590-31684 10590-11074 0-23519-4156-31695-10590-2938-2309-3436-6559-1126-9497 2309-2938 6559-3436 9497-1126 4703 3702 14002 7685 23323 7685 9326 0 18628-3983 23328-7685h-13zm67753-47098c0-12583-10189-22772-22769-22772-8562 0-16008 4726-19901 11705-11702-6397-25960-10542-41497-11497l13580-30511 26000 7504c2346 6639 8663 11406 16113 11406 9427 0 17077-7652 17077-17078 0-9427-7652-17078-17077-17078-6502 0-12163 3631-15041 8986l-28976-8370c-3244-935-6682 659-8052 3744l-18456 41448c-15141 1072-29042 5161-40492 11430-3897-6980-11340-11706-19902-11706-12583 0-22770 10190-22770 22772 0 9302 5588 17307 13578 20833-1432 4270-2199 8731-2199 13322 0 31433 35678 56921 79694 56921 44015 0 79694-25489 79694-56921 0-4589-762-9049-2198-13322 8005-3526 13578-11531 13578-20833l13 17 3-1zm-28464-57627c3544 0 6415 2868 6415 6410 0 3541-2871 6411-6415 6411-3541 0-6411-2871-6411-6411 0-3543 2871-6410 6411-6410zM86978 155297c0-6273 5110-11386 11382-11386 4545 0 8462 2663 10294 6523-5957 4512-10883 9726-14526 15427-4193-1688-7150-5782-7150-10563v-1zm79694 77563c-36546 0-66180-19431-66180-43411s29621-43414 66180-43414c36543 0 66176 19434 66176 43414s-29621 43410-66176 43410v1zm72540-67000c-3643-5715-8569-10915-14526-15427 1832-3846 5749-6522 10294-6522 6272 0 11386 5113 11386 11387 0 4781-2961 8881-7154 10563z" fill="#ff4500"/></svg>